# xmcd
# 
# Track frame offsets:
#     150
#     17847
#     35425
#     55223
#     68770
#     84970
#     106948
#     123925
#     136346
#     156365
# 
# Disc length: 2385
# 
# Revision: 1
# Processed by: cddbd v1.5.2PL0 Copyright (c) Steve Scherf et al.
# Submitted via: fre:ac v1.0.31
# 
DISCID=7b094f0a
DTITLE=Delta Heat - Let's Have A party
DYEAR=2009
DGENRE=Blues
TTITLE0=Rock This House
TTITLE1=Have You Ever Had The Blues
TTITLE2=It Hurts To Love Someone
TTITLE3=Hustle Is On
TTITLE4=Blue Mood
TTITLE5=She's Dynamite
TTITLE6=Tryin' To Make You Mine
TTITLE7=We Don't See Eye To Eye
TTITLE8=Suggestion Blues
TTITLE9=One Bourbon One Scotch One Beer
EXTD=
EXTT0=
EXTT1=
EXTT2=
EXTT3=
EXTT4=
EXTT5=
EXTT6=
EXTT7=
EXTT8=
EXTT9=
PLAYORDER=
